<?xml version="1.0" encoding="utf-8"?>
<!-- Generator: Adobe Illustrator 16.0.0, SVG Export Plug-In . SVG Version: 6.00 Build 0)  -->
<!DOCTYPE svg PUBLIC "-//W3C//DTD SVG 1.1//EN" "http://www.w3.org/Graphics/SVG/1.1/DTD/svg11.dtd">
<svg version="1.1" id="Layer_1" xmlns="http://www.w3.org/2000/svg" xmlns:xlink="http://www.w3.org/1999/xlink" x="0px" y="0px"
	 width="392.195px" height="392.193px" viewBox="0 0 392.195 392.193" enable-background="new 0 0 392.195 392.193"
	 xml:space="preserve">
<path d="M171.581,1.368l-0.166,0.166C82.832,12.63,12.63,82.832,1.534,171.415l-0.166,0.166C0.664,177.252,0.211,182.998,0,188.809
	L188.809,0C182.999,0.21,177.252,0.664,171.581,1.368z M156.508,16.441L16.441,156.508C31.734,86.692,86.692,31.734,156.508,16.441z
	"/>
<path d="M246.346,6.386c-0.009-0.002-0.019-0.004-0.025-0.007c-1.215-0.321-2.434-0.633-3.657-0.931
	c-0.059-0.015-0.117-0.028-0.176-0.042c-1.162-0.282-2.326-0.559-3.496-0.819c-0.336-0.075-0.673-0.146-1.008-0.218
	c-0.92-0.201-1.84-0.402-2.766-0.591c-1.313-0.267-2.631-0.521-3.953-0.763l-10.576,10.576L3.018,231.263
	c0.24,1.326,0.496,2.646,0.765,3.963c0.183,0.902,0.38,1.799,0.575,2.697c0.078,0.356,0.152,0.717,0.232,1.074
	c0.263,1.176,0.539,2.344,0.823,3.512c0.012,0.047,0.022,0.096,0.034,0.145c20.928,85.828,98.306,149.539,190.577,149.539
	c108.341,0,196.169-87.827,196.169-196.169C392.193,105.081,330.302,28.607,246.346,6.386z M236.306,16.426
	c82.014,18.539,143.262,91.834,143.262,179.453c0,101.619-82.379,183.999-183.999,183.999c-87.618,0-160.913-61.248-179.452-143.262
	l53.698-53.698c-0.441,4.309-0.67,8.681-0.67,13.105c0,65.835,50.145,119.954,114.322,126.26l138.818-138.816
	c-6.307-64.178-60.426-114.322-126.261-114.322c-4.426,0-8.798,0.229-13.106,0.67"/>
<path d="M322.201,209.408L209.41,322.199c5.407-0.566,10.713-1.478,15.896-2.701l94.192-94.193
	C320.722,220.121,321.632,214.816,322.201,209.408z"/>
<path d="M313.498,244.033l-69.463,69.463C275.492,300.626,300.628,275.49,313.498,244.033z"/>
</svg>
