<?xml version="1.0" encoding="utf-8"?>
<!-- Generator: Adobe Illustrator 16.0.0, SVG Export Plug-In . SVG Version: 6.00 Build 0)  -->
<!DOCTYPE svg PUBLIC "-//W3C//DTD SVG 1.1//EN" "http://www.w3.org/Graphics/SVG/1.1/DTD/svg11.dtd">
<svg version="1.1" id="Layer_1" xmlns="http://www.w3.org/2000/svg" xmlns:xlink="http://www.w3.org/1999/xlink" x="0px" y="0px"
	 width="392.195px" height="392.195px" viewBox="0 -0.001 392.195 392.195" enable-background="new 0 -0.001 392.195 392.195"
	 xml:space="preserve">
<circle cx="196.098" cy="196.096" r="196.098"/>
<path fill="#FFFFFF" d="M173.218,14.374l-0.155,0.155C90.397,24.884,24.884,90.397,14.529,173.063l-0.155,0.155
	c-0.657,5.292-1.08,10.654-1.277,16.078L189.296,13.097C183.874,13.293,178.511,13.718,173.218,14.374z"/>
<path fill="#FFFFFF" d="M242.99,19.057c-0.009-0.002-0.018-0.004-0.024-0.007c-1.134-0.299-2.271-0.591-3.412-0.868
	c-0.055-0.014-0.109-0.027-0.164-0.04c-1.084-0.263-2.17-0.521-3.263-0.764c-0.313-0.069-0.629-0.136-0.94-0.203
	c-0.857-0.188-1.718-0.376-2.582-0.552c-1.226-0.25-2.454-0.486-3.688-0.711l-9.87,9.869L15.914,228.915
	c0.224,1.236,0.463,2.469,0.714,3.697c0.17,0.842,0.354,1.68,0.536,2.518c0.073,0.332,0.142,0.669,0.217,1.002
	c0.246,1.097,0.502,2.188,0.768,3.277c0.011,0.045,0.021,0.09,0.031,0.135c19.53,80.097,91.74,139.552,177.848,139.552
	c101.105,0,183.067-81.962,183.067-183.066C379.096,111.16,321.338,39.794,242.99,19.057z M233.621,28.427
	c76.536,17.3,133.693,85.7,133.693,167.467c0,94.831-76.877,171.709-171.71,171.709c-81.766,0-150.165-57.156-167.466-133.692
	l50.111-50.112c-0.411,4.021-0.625,8.102-0.625,12.23c0,61.438,46.796,111.941,106.687,117.827L313.856,184.31
	c-5.887-59.892-56.39-106.686-117.828-106.686c-4.13,0-8.209,0.214-12.23,0.625"/>
<path fill="#FFFFFF" d="M313.778,208.519L208.521,313.776c5.045-0.528,9.998-1.378,14.836-2.521l87.899-87.901
	C312.398,218.515,313.247,213.566,313.778,208.519z"/>
<path fill="#FFFFFF" d="M305.656,240.832l-64.823,64.823C270.189,293.644,293.646,270.186,305.656,240.832z"/>
</svg>
